HIERARCHY
ROOT Hips
{
  OFFSET 0.000000 0.000000 0.000000
  CHANNELS 6 Xposition Yposition Zposition Zrotation Xrotation Yrotation
  JOINT RightUpLeg
  {
    OFFSET -5.467922 -9.171772 -0.725936
    CHANNELS 3 Zrotation Xrotation Yrotation
    JOINT RightLeg
    {
      OFFSET -10.507757 -36.565968 2.283604
      CHANNELS 3 Zrotation Xrotation Yrotation
      JOINT RightFoot
      {
        OFFSET -0.543901 -35.146286 -23.616415
        CHANNELS 3 Zrotation Xrotation Yrotation
        JOINT RightToeBase
        {
          OFFSET -8.092607 -6.158295 11.906448
          CHANNELS 3 Zrotation Xrotation Yrotation
          End Site
          {
            OFFSET 0.000000 4.000000 0.000000
          }
        }
      }
    }
  }
  JOINT LeftUpLeg
  {
    OFFSET 6.131578 -8.108979 0.649224
    CHANNELS 3 Zrotation Xrotation Yrotation
    JOINT LeftLeg
    {
      OFFSET 14.360160 -33.201935 17.879681
      CHANNELS 3 Zrotation Xrotation Yrotation
      JOINT LeftFoot
      {
        OFFSET 6.967619 -40.822662 13.290143
        CHANNELS 3 Zrotation Xrotation Yrotation
        JOINT LeftToeBase
        {
          OFFSET 6.767401 0.162400 13.006073
          CHANNELS 3 Zrotation Xrotation Yrotation
          End Site
          {
            OFFSET 0.000000 4.000000 0.000000
          }
        }
      }
    }
  }
  JOINT Spine
  {
    OFFSET -0.415589 12.517357 -4.167231
    CHANNELS 3 Zrotation Xrotation Yrotation
    JOINT Spine1
    {
      OFFSET -1.398646 14.071631 2.188838
      CHANNELS 3 Zrotation Xrotation Yrotation
      JOINT Spine2
      {
        OFFSET -1.011341 4.353130 3.099259
        CHANNELS 3 Zrotation Xrotation Yrotation
        JOINT Neck
        {
          OFFSET -5.147295 21.729898 -0.439379
          CHANNELS 3 Zrotation Xrotation Yrotation
          JOINT Head
          {
            OFFSET -3.715601 6.664813 6.722395
            CHANNELS 3 Zrotation Xrotation Yrotation
            End Site
            {
              OFFSET 0.000000 4.000000 0.000000
            }
          }
        }
        JOINT RightShoulder
        {
          OFFSET -9.750731 10.267544 -2.760213
          CHANNELS 3 Zrotation Xrotation Yrotation
          JOINT RightArm
          {
            OFFSET -11.699198 -2.574575 0.258219
            CHANNELS 3 Zrotation Xrotation Yrotation
            JOINT RightForeArm
            {
              OFFSET -0.232339 -25.277090 6.982097
              CHANNELS 3 Zrotation Xrotation Yrotation
              JOINT RightHand
              {
                OFFSET 9.409205 -13.029313 18.553339
                CHANNELS 3 Zrotation Xrotation Yrotation
                End Site
                {
                  OFFSET 0.000000 4.000000 0.000000
                }
              }
            }
          }
        }
        JOINT LeftShoulder
        {
          OFFSET 4.046185 13.245619 0.261812
          CHANNELS 3 Zrotation Xrotation Yrotation
          JOINT LeftArm
          {
            OFFSET 12.622553 3.586483 2.816772
            CHANNELS 3 Zrotation Xrotation Yrotation
            JOINT LeftForeArm
            {
              OFFSET 13.925245 -20.901346 2.353512
              CHANNELS 3 Zrotation Xrotation Yrotation
              JOINT LeftHand
              {
                OFFSET -6.706360 -10.673225 19.704679
                CHANNELS 3 Zrotation Xrotation Yrotation
                End Site
                {
                  OFFSET 0.000000 4.000000 0.000000
                }
              }
            }
          }
        }
      }
    }
  }
}
MOTION
Frames: 15
Frame Time: 0.050000
-54.991669 1.782882 37.568890 -5.666382 5.953465 -1.422119 4.687663 17.693295 -4.810643 6.171740 -23.408883 7.037113 -3.505352 12.321370 -18.817571 4.780780 -10.946498 21.109328 1.626310 -8.606354 -1.992618 -5.015728 17.685854 5.070131 -0.281642 3.278334 -7.081687 10.761867 -17.340225 8.875777 -2.791424 -11.064100 1.603255 2.597921 1.420882 2.733973 -13.640180 -1.272310 -5.302209 4.270542 -6.026924 11.769868 17.568976 8.645085 -12.315393 -9.332074 7.581467 -2.696773 6.616566 -17.020654 -2.591703 90.100431 -18.350493 42.654403 -56.829740 63.157710 -2.611019 12.234904 14.428913 -16.737179 5.880354 -34.310798 -1.829475 3.365277 -56.485200 19.161578 75.260652 70.641240 -57.163819
-51.212757 2.617174 42.068123 -7.249020 8.206927 -1.666025 3.794014 13.787794 -3.652957 6.304057 -14.466171 6.628195 8.167873 17.282316 -24.994981 1.131028 -25.900051 25.468666 -0.140608 -8.004345 -2.497154 -1.230584 16.161351 5.816434 -0.520313 2.848757 -9.861205 11.431823 -17.607490 11.343939 -5.571811 -10.076092 2.532712 7.941051 -2.143355 0.741580 -13.627475 -2.695699 -4.979370 3.628042 -5.112421 11.368566 17.043442 9.329916 -11.546208 -6.418058 7.650133 0.140513 -22.850621 -8.390306 -13.048443 90.476086 -46.091368 17.455115 -57.340445 58.610369 37.750738 20.945509 13.005108 -21.514229 25.936333 -49.880400 3.212941 30.056596 -50.677199 68.067478 124.586725 62.396796 -112.889612
-48.078403 3.364527 44.622124 -8.558042 7.925881 -2.049007 3.123413 9.031716 -1.858469 7.877398 -8.410102 4.880766 8.185058 17.106727 -25.637047 1.435168 -26.782080 26.505082 0.319804 -6.618478 -1.993951 -1.859772 15.702161 5.621681 1.599934 0.496145 -9.277349 10.389666 -16.135467 10.999643 -5.685364 -5.834425 4.028906 8.508954 -5.367275 0.955066 -12.055948 -1.536180 -5.113573 3.025331 -3.900064 12.522912 16.225941 5.814438 -12.387814 -14.273897 2.742558 4.715044 -33.962455 -5.561347 -24.459043 63.518786 -47.590597 -29.178945 -57.436631 56.249961 65.747158 27.182363 8.386514 -24.839606 37.958918 -59.785147 10.741316 28.434388 -21.945094 76.002865 107.331567 61.062789 -109.626402
-45.500748 2.825665 46.137508 -6.308492 7.684915 -1.457848 -3.246960 -2.123629 -0.698102 8.470500 -8.660432 3.553072 1.492474 15.861761 -22.567306 4.950731 -11.554161 21.955910 -2.367860 -7.519971 -3.697836 -10.206082 23.417419 7.783284 7.415632 -8.123461 2.613099 8.756020 -16.491803 0.675488 -5.178945 5.115163 5.108748 1.454381 -11.968938 3.026204 -6.868135 1.404252 -6.715893 0.991659 -4.321675 14.591344 15.299408 -1.322088 -15.039868 -34.885849 -14.149586 13.753863 -42.250050 -2.490531 -53.021643 29.937655 23.593072 -64.353656 -26.277810 52.481684 93.917821 36.134774 -4.033358 -16.839981 26.413968 -72.224627 0.781105 -1.930614 20.982302 75.100763 30.779723 53.807963 -48.710616
-45.066536 2.286738 47.165161 -4.945495 5.653644 -1.237318 -5.031442 -3.163522 -0.384126 8.810432 -8.389610 2.529235 0.408952 15.655251 -18.730684 4.228539 -8.780856 18.090762 -3.667156 -5.268184 -3.761091 -12.027917 24.531082 7.916330 8.063835 -8.507201 4.215765 9.267269 -17.799012 -0.360394 -5.796777 6.772052 4.731110 -0.803416 -10.181992 4.346220 -4.737091 0.973012 -7.989588 -0.708333 -7.227194 14.223702 16.857802 0.209254 -15.616995 -36.165589 -17.142583 15.826398 -39.552195 -3.414055 -56.341748 29.009981 20.186418 -62.388191 -30.429699 52.456403 90.256018 33.612747 -4.367266 -16.165961 14.703986 -68.637191 -7.965405 -3.336162 23.188425 70.126150 20.024716 47.429855 -38.972549
-45.378628 2.037650 48.163666 -3.840200 4.690978 -0.980194 -7.465021 -1.776504 -0.881566 12.004070 -6.368958 1.593081 -0.261240 15.557891 -18.589233 3.618220 -11.317414 19.188953 -4.458771 -4.104485 -3.718980 -12.782085 25.029284 7.777089 8.755261 -9.600115 4.310826 9.050849 -17.393486 -0.374565 -5.797681 5.890605 3.942796 -1.896550 -7.571090 5.145117 -4.137062 0.561707 -8.282698 -1.937841 -9.120356 13.950222 18.033021 1.479293 -16.010050 -30.836841 -18.845407 19.729474 -38.053531 -5.923892 -57.380482 31.288193 9.894016 -56.169470 -33.646528 51.983547 76.554321 27.400828 -2.762690 -15.603295 7.609437 -61.446708 -13.424846 -2.068722 19.074812 60.243771 14.279506 41.800682 -29.289515
-46.545715 2.216583 49.293869 -3.187379 4.015187 -0.826680 -8.928713 0.627677 -1.379592 14.235803 -4.994830 1.422855 -0.730000 14.201882 -18.364682 3.154518 -13.129476 19.855100 -4.375883 -2.371064 -2.856630 -12.432875 24.726886 6.770954 8.504040 -10.659071 3.759379 8.785088 -16.856428 -0.276691 -5.859361 3.804690 3.222636 -2.275371 -4.737156 5.823587 -3.570550 -0.823244 -8.763842 -3.000010 -9.162490 14.059793 18.734410 2.644414 -16.059299 -24.762292 -18.158750 24.041566 -36.337312 -8.331660 -56.464246 39.579735 1.621942 -44.660588 -31.472374 50.054423 54.269406 21.297341 0.060772 -14.037784 8.306420 -54.181339 -13.419200 -5.168411 7.362348 48.641177 15.273047 40.939093 -18.576430
-48.746849 2.316743 50.390156 -2.845913 3.619179 -0.745964 -8.988757 3.025936 -1.755291 14.604889 -5.338787 1.841635 -0.965224 13.169863 -18.019448 2.906129 -13.710805 19.874248 -3.466530 -0.572248 -1.454638 -10.343235 23.768552 5.311504 6.318349 -11.166135 1.505848 8.644675 -16.325629 0.546173 -5.433212 1.275835 2.542015 -1.982487 -2.000357 5.899690 -4.239439 -2.829427 -8.879837 -2.766597 -7.686789 13.813628 18.273506 3.806305 -15.117498 -19.324965 -14.215825 24.954051 -32.111988 -10.148024 -50.842818 54.016673 -7.422961 -27.345799 -31.432851 47.874365 30.435161 17.642841 3.005677 -12.074618 11.018921 -48.763213 -12.006615 -11.383730 -10.443711 36.584778 22.453463 48.294075 -10.134864
-52.029400 2.333283 51.221157 -1.960581 3.806438 -0.466618 -7.697733 5.241292 -2.451210 13.540788 -9.342071 2.262972 -1.035692 14.783585 -15.416775 1.501426 -13.956825 17.508927 -2.556365 0.684341 -0.021986 -8.528765 21.662122 3.261799 3.982537 -10.943341 0.636293 8.159048 -15.567400 0.053222 -5.771233 -0.992964 1.767117 -1.668731 0.857133 6.077517 -6.087115 -5.280441 -9.410438 -2.047911 -7.767430 13.422059 18.797929 5.953351 -14.593602 -13.915282 -9.249643 22.499975 -23.689195 -5.443363 -39.492685 72.090705 -16.103732 -1.059478 -33.780760 47.040868 10.005707 15.207074 5.508441 -9.845730 9.800508 -46.644719 -14.599008 -10.457293 -28.540541 30.617642 37.483318 61.821055 -16.799194
-56.447609 1.250833 51.280964 -0.339235 3.992093 0.031854 -4.360115 5.446082 -2.940998 12.195381 -11.350194 0.125770 -10.334932 9.783468 -12.471486 5.060653 -6.713219 17.783583 0.249883 0.298431 1.835462 -7.445083 19.441277 0.727300 -0.821899 -8.585151 2.085812 7.551279 -15.449219 -3.416733 -8.067659 -0.687622 1.289182 -1.206032 -0.374426 5.814823 -8.839359 -3.987506 -9.436268 0.847360 -11.004425 11.325924 19.537361 9.539620 -13.674514 -8.213524 -4.818972 14.805714 -14.097096 0.531357 -25.565584 84.215250 -28.838253 23.518617 -42.152643 52.814018 9.187790 10.345151 8.061813 -9.664552 -0.214560 -46.981041 -23.881428 11.876215 -49.256718 34.675073 102.193357 71.505541 -80.821629
-61.322987 1.814711 50.597317 -0.068978 3.595705 0.099665 1.105762 7.121578 -3.178068 9.101466 -13.939186 -1.149144 -14.632600 6.641417 -8.212787 5.668669 -3.032634 15.227396 1.257703 -4.786190 0.118486 -11.920576 24.412385 3.097113 1.093898 -8.699283 5.884228 7.203287 -15.588987 -6.111353 -9.334625 -0.790485 1.292428 0.361203 -1.100746 5.036926 -10.809417 -1.575662 -8.126539 3.960154 -11.240661 9.760644 17.741100 9.478626 -12.106390 -8.356878 -4.332348 10.676257 -10.423380 2.412341 -20.869688 85.916632 -52.713296 21.446814 -62.189108 59.442664 44.732400 9.435766 8.954415 -12.549416 -15.125832 -48.048747 -33.487301 46.496911 -47.153122 52.215120 118.709220 62.418725 -110.916399
-65.120361 2.833194 50.214661 -0.859623 2.259342 -0.195547 3.047871 8.365642 -2.840677 10.426455 -12.973685 -2.671431 -15.738267 6.339324 -5.268388 4.205953 -4.531614 13.801217 -2.627047 -10.788532 -5.592552 -23.866844 35.699259 14.334408 8.311339 -8.277005 2.831080 11.979457 -21.810673 2.157739 -7.206584 0.493979 1.642867 -0.736074 -0.055182 5.344709 -10.919060 -1.592611 -8.023667 4.432158 -11.592104 9.125023 16.931663 9.101653 -11.545505 -11.622610 -5.240784 9.343742 -6.019138 -4.244158 -21.600965 40.295897 -68.212022 -26.937874 -79.968258 57.135945 84.219700 10.099688 8.814081 -15.618157 -31.716603 -45.345817 -39.811224 65.761761 -35.387802 54.487902 100.175543 60.852088 -107.333362
-68.481834 2.802712 50.337875 -3.736600 2.326931 -1.099829 3.795378 6.521074 -1.275342 17.967168 -7.079019 -6.924873 -14.225126 11.469916 -0.275051 -3.029932 -15.565399 10.980531 -6.592356 -11.988732 -9.772471 -31.413805 36.675603 22.208299 11.820818 3.360541 -3.005204 24.315810 -32.565568 18.179310 -2.541633 0.316759 2.390064 -1.564482 -1.168111 4.583508 -9.439651 -0.907071 -6.743540 3.167935 -11.733803 7.675430 15.679330 9.965639 -10.036938 -15.028329 -5.558670 9.905930 -0.044493 -15.196224 -22.878368 -5.931444 -54.535794 -65.504822 -79.438146 53.832482 101.416702 11.018361 8.570342 -18.112315 -44.462113 -42.003189 -40.947503 69.543919 -27.047391 47.106404 73.728999 62.459297 -85.795186
-72.139854 0.998771 50.687511 -7.009614 3.771370 -2.006068 2.062910 6.701350 -0.671458 27.710346 1.164328 -9.603876 -10.247355 14.685816 3.736367 -13.320934 -28.343580 5.341058 -6.260225 -11.274848 -9.957241 -29.617684 31.538303 19.379920 14.748463 9.481582 -5.037216 27.478789 -32.974906 24.612183 1.766750 -1.607043 3.251586 0.173170 -1.716208 2.638422 -10.354532 0.614223 -3.975124 3.076960 -11.699873 6.148553 13.739600 9.765692 -8.349617 -12.425408 -5.492440 9.121980 1.858960 -16.076513 -19.877326 -4.017154 -52.141409 -56.514352 -68.983812 55.310538 89.418848 10.677739 8.007437 -20.403183 -44.921662 -41.475871 -36.202161 62.323997 -28.835238 39.196205 62.294096 63.455225 -68.310385
-76.310020 -0.130397 50.636303 -10.943636 6.146163 -2.921747 -2.627981 5.294959 -0.064500 30.026393 -4.431752 -3.355430 -11.357413 13.027245 -9.199748 -0.788722 -20.622971 18.738103 -5.467759 -10.320903 -9.608884 -20.990215 32.678799 20.242548 16.677855 -8.887363 -1.974826 14.202735 -21.591216 11.778839 4.418519 -3.549876 4.795171 2.159479 -2.018017 2.008990 -10.222114 0.631055 -3.506379 2.962443 -11.323051 5.767407 13.003918 9.458841 -7.806729 -10.863321 -5.961895 10.448742 2.649062 -14.375391 -19.700519 14.387356 -50.372946 -33.114300 -55.114188 55.886572 64.385448 12.488126 7.490003 -22.480497 -39.023605 -42.479979 -27.598629 33.125421 -38.544124 17.124490 63.943504 69.157486 -46.990093
